<svg xmlns="http://www.w3.org/2000/svg" viewBox="0 0 960 960" id="paper-plane">
  <polygon fill="#ffc55c" points="818.28 239.9 312.82 524.92 127.6 459.88 818.28 239.9"></polygon>
  <polygon fill="#00abac" points="818.28 239.9 650.04 678.22 507.77 606.34 439.74 571.96 818.28 239.9"></polygon>
  <polygon fill="#ff5c4b" points="818.28 239.9 439.74 571.96 335.32 771.56 312.82 524.92 818.28 239.9"></polygon>
  <polygon fill="#b776ff" points="439.74 571.96 507.77 606.34 335.32 771.56 439.74 571.96"></polygon>
  <g>
    <path d="m312.82,526.92c-.22,0-.443-.037-.662-.113l-185.222-65.04c-.811-.285-1.35-1.057-1.337-1.917s.573-1.615,1.393-1.876l690.682-219.98c1.045-.333,2.177.246,2.512,1.299.336,1.052-.246,2.177-1.298,2.513L133.899,459.972l179.583,63.061c1.043.366,1.591,1.508,1.225,2.55-.289.823-1.062,1.338-1.887,1.338Z"></path>
    <path d="m650.04,680.22c-.31,0-.619-.072-.902-.215l-142.271-71.88c-.985-.498-1.381-1.701-.883-2.687.497-.984,1.698-1.382,2.688-.883l140.294,70.882,167.447-436.254c.396-1.031,1.55-1.546,2.584-1.15,1.031.396,1.546,1.553,1.15,2.584l-168.24,438.32c-.203.528-.619.945-1.147,1.149-.232.09-.477.134-.72.134Z"></path>
    <path d="m335.318,773.56c-1.023,0-1.896-.78-1.99-1.818l-22.5-246.64c-.071-.784.324-1.537,1.01-1.924l505.46-285.02c.892-.502,2.021-.251,2.614.585.593.836.457,1.984-.312,2.66l-378.54,332.06c-.831.729-2.095.646-2.823-.185-.728-.831-.646-2.094.185-2.822l364.04-319.34-487.531,274.91,22.383,245.352c.1,1.1-.711,2.073-1.811,2.173-.062.006-.123.008-.184.008Z"></path>
    <path d="m335.32,773.56c-.421,0-.844-.132-1.201-.401-.783-.589-1.025-1.658-.571-2.526l104.42-199.6c.507-.968,1.695-1.352,2.675-.858l68.029,34.38c.579.293.98.848,1.076,1.49.096.642-.126,1.29-.595,1.739l-172.449,165.22c-.385.368-.884.556-1.384.556Zm105.278-198.926l-97.848,187.037,161.595-154.821-63.747-32.216Z"></path>
  </g>
</svg>
